<svg xmlns="http://www.w3.org/2000/svg" xmlns:xlink="http://www.w3.org/1999/xlink" width="500" zoomAndPan="magnify" viewBox="0 0 375 374.999991" height="500" preserveAspectRatio="xMidYMid meet" version="1.0"><defs><clipPath id="0dba1717cb"><path d="M 156 141 L 374.421875 141 L 374.421875 245 L 156 245 Z M 156 141 " clip-rule="nonzero"/></clipPath><clipPath id="7fa592b646"><path d="M 0 79 L 374.421875 79 L 374.421875 171 L 0 171 Z M 0 79 " clip-rule="nonzero"/></clipPath><clipPath id="8507018646"><path d="M 110 154.433594 L 169 154.433594 L 169 226.691406 L 110 226.691406 Z M 110 154.433594 " clip-rule="nonzero"/></clipPath></defs><path fill="#000000" d="M 274.5625 206.199219 C 267.015625 223.109375 254.46875 237.980469 237.503906 248.332031 C 192.980469 275.503906 134.949219 261.289062 107.886719 216.585938 C 93.0625 192.101562 90.605469 163.550781 98.730469 138.265625 L 84.449219 132.195312 C 74.484375 161.945312 77.164062 195.734375 94.671875 224.652344 C 126.167969 276.683594 193.714844 293.226562 245.535156 261.597656 C 270.40625 246.421875 287.128906 222.90625 294.320312 196.800781 Z M 139.5 86.445312 C 180.035156 61.707031 231.761719 71.273438 261.125 106.917969 L 282.535156 110.464844 C 282.464844 110.351562 282.402344 110.238281 282.332031 110.125 C 250.835938 58.09375 183.292969 41.550781 131.46875 73.175781 C 126.542969 76.183594 121.9375 79.519531 117.65625 83.136719 L 139.105469 86.691406 C 139.238281 86.609375 139.371094 86.527344 139.5 86.445312 " fill-opacity="1" fill-rule="nonzero"/><g clip-path="url(#0dba1717cb)"><path fill="#47dce1" d="M 156.808594 244.984375 L 374.421875 141.472656 L 282.53125 151.972656 L 215.367188 170.925781 L 156.808594 244.984375 " fill-opacity="1" fill-rule="nonzero"/></g><g clip-path="url(#7fa592b646)"><path fill="#07b0b6" d="M 215.367188 170.925781 L 374.421875 141.472656 L -0.00390625 79.410156 L 215.367188 170.925781 " fill-opacity="1" fill-rule="nonzero"/></g><g clip-path="url(#8507018646)"><path fill="#000000" d="M 168.050781 168.886719 C 168.050781 168.886719 169.851562 210.429688 139.53125 226.683594 C 108.585938 210.429688 110.386719 168.886719 110.386719 168.886719 C 124.804688 168.886719 139.21875 154.4375 139.21875 154.4375 C 139.21875 154.4375 151.832031 168.886719 168.050781 168.886719 Z M 168.050781 168.886719 " fill-opacity="1" fill-rule="nonzero"/></g><path fill="#47dce1" d="M 149.722656 179.722656 L 135.496094 193.996094 L 128.707031 187.210938 L 124.792969 191.144531 L 135.5 201.84375 L 153.644531 183.644531 Z M 149.722656 179.722656 " fill-opacity="1" fill-rule="nonzero"/></svg>