<svg xmlns="http://www.w3.org/2000/svg" xmlns:xlink="http://www.w3.org/1999/xlink" width="500" zoomAndPan="magnify" viewBox="0 0 375 374.999991" height="500" preserveAspectRatio="xMidYMid meet" version="1.0"><defs><clipPath id="63f229fbd7"><path d="M 179 145 L 307.125 145 L 307.125 207 L 179 207 Z M 179 145 " clip-rule="nonzero"/></clipPath><clipPath id="ebb59f6069"><path d="M 86.9375 109 L 307.125 109 L 307.125 163 L 86.9375 163 Z M 86.9375 109 " clip-rule="nonzero"/></clipPath><clipPath id="e1aed0b95f"><path d="M 151 153.144531 L 186 153.144531 L 186 195.636719 L 151 195.636719 Z M 151 153.144531 " clip-rule="nonzero"/></clipPath></defs><path fill="#23242c" d="M 248.402344 183.585938 C 243.960938 193.53125 236.585938 202.277344 226.609375 208.363281 C 200.425781 224.34375 166.296875 215.984375 150.382812 189.695312 C 141.667969 175.296875 140.222656 158.507812 145 143.636719 L 136.601562 140.066406 C 130.742188 157.5625 132.316406 177.433594 142.613281 194.4375 C 161.136719 225.039062 200.855469 234.765625 231.332031 216.167969 C 245.957031 207.242188 255.792969 193.410156 260.023438 178.058594 Z M 168.976562 113.164062 C 192.8125 98.617188 223.230469 104.242188 240.5 125.203125 L 253.089844 127.289062 C 253.050781 127.222656 253.011719 127.15625 252.972656 127.089844 C 234.449219 96.488281 194.726562 86.761719 164.253906 105.359375 C 161.355469 107.128906 158.644531 109.089844 156.128906 111.21875 L 168.742188 113.308594 C 168.820312 113.261719 168.898438 113.210938 168.976562 113.164062 " fill-opacity="1" fill-rule="nonzero"/><g clip-path="url(#63f229fbd7)"><path fill="#47dce1" d="M 179.152344 206.394531 L 307.128906 145.523438 L 253.089844 151.695312 L 213.589844 162.84375 L 179.152344 206.394531 " fill-opacity="1" fill-rule="nonzero"/></g><g clip-path="url(#ebb59f6069)"><path fill="#07b0b6" d="M 213.589844 162.84375 L 307.128906 145.523438 L 86.9375 109.027344 L 213.589844 162.84375 " fill-opacity="1" fill-rule="nonzero"/></g><g clip-path="url(#e1aed0b95f)"><path fill="#000000" d="M 185.765625 161.644531 C 185.765625 161.644531 186.824219 186.074219 168.992188 195.636719 C 150.796875 186.074219 151.855469 161.644531 151.855469 161.644531 C 160.332031 161.644531 168.808594 153.148438 168.808594 153.148438 C 168.808594 153.148438 176.226562 161.644531 185.765625 161.644531 Z M 185.765625 161.644531 " fill-opacity="1" fill-rule="nonzero"/></g><path fill="#47dce1" d="M 174.988281 168.019531 L 166.621094 176.410156 L 162.628906 172.421875 L 160.324219 174.734375 L 166.621094 181.027344 L 177.292969 170.324219 Z M 174.988281 168.019531 " fill-opacity="1" fill-rule="nonzero"/></svg>