<svg xmlns="http://www.w3.org/2000/svg" xmlns:xlink="http://www.w3.org/1999/xlink" width="500" zoomAndPan="magnify" viewBox="0 0 375 374.999991" height="500" preserveAspectRatio="xMidYMid meet" version="1.0"><defs><clipPath id="e27905b0e8"><path d="M 176 158 L 251.527344 158 L 251.527344 194 L 176 194 Z M 176 158 " clip-rule="nonzero"/></clipPath><clipPath id="17e9bec143"><path d="M 123.277344 137 L 251.527344 137 L 251.527344 169 L 123.277344 169 Z M 123.277344 137 " clip-rule="nonzero"/></clipPath><clipPath id="dbfb75c733"><path d="M 161 162.75 L 181 162.75 L 181 187.5 L 161 187.5 Z M 161 162.75 " clip-rule="nonzero"/></clipPath></defs><rect x="-37.5" width="450" fill="#ffffff" y="-37.499999" height="449.999989" fill-opacity="1"/><rect x="-37.5" width="450" fill="#ffffff" y="-37.499999" height="449.999989" fill-opacity="1"/><rect x="-37.5" width="450" fill="#ffffff" y="-37.499999" height="449.999989" fill-opacity="1"/><path fill="#23242c" d="M 217.320312 180.480469 C 214.734375 186.273438 210.4375 191.367188 204.628906 194.914062 C 189.378906 204.21875 169.5 199.351562 160.230469 184.039062 C 155.152344 175.652344 154.3125 165.871094 157.09375 157.210938 L 152.203125 155.132812 C 148.789062 165.320312 149.707031 176.894531 155.703125 186.800781 C 166.492188 204.625 189.628906 210.289062 207.378906 199.457031 C 215.898438 194.257812 221.625 186.203125 224.089844 177.261719 Z M 171.058594 139.460938 C 184.941406 130.988281 202.660156 134.265625 212.71875 146.472656 L 220.050781 147.6875 C 220.027344 147.652344 220.007812 147.609375 219.984375 147.574219 C 209.195312 129.75 186.058594 124.082031 168.308594 134.917969 C 166.621094 135.945312 165.042969 137.089844 163.578125 138.328125 L 170.925781 139.546875 C 170.96875 139.519531 171.015625 139.488281 171.058594 139.460938 " fill-opacity="1" fill-rule="nonzero"/><g clip-path="url(#e27905b0e8)"><path fill="#47dce1" d="M 176.988281 193.765625 L 251.527344 158.3125 L 220.050781 161.90625 L 197.046875 168.398438 L 176.988281 193.765625 " fill-opacity="1" fill-rule="nonzero"/></g><g clip-path="url(#17e9bec143)"><path fill="#07b0b6" d="M 197.046875 168.398438 L 251.527344 158.3125 L 123.273438 137.050781 L 197.046875 168.398438 " fill-opacity="1" fill-rule="nonzero"/></g><g clip-path="url(#dbfb75c733)"><path fill="#000000" d="M 180.835938 167.699219 C 180.835938 167.699219 181.453125 181.929688 171.070312 187.5 C 160.46875 181.929688 161.085938 167.699219 161.085938 167.699219 C 166.023438 167.699219 170.960938 162.75 170.960938 162.75 C 170.960938 162.75 175.28125 167.699219 180.835938 167.699219 Z M 180.835938 167.699219 " fill-opacity="1" fill-rule="nonzero"/></g><path fill="#dcedc8" d="M 174.558594 171.414062 L 169.6875 176.300781 L 167.359375 173.976562 L 166.019531 175.324219 L 169.6875 178.988281 L 175.902344 172.753906 Z M 174.558594 171.414062 " fill-opacity="1" fill-rule="nonzero"/></svg>